<svg width="366" height="82" viewBox="0 0 366 82" fill="none" xmlns="http://www.w3.org/2000/svg">
<path d="M34.5426 18.2L38.0426 14.42C38.3972 14.7933 38.7706 15.1013 39.1626 15.344C40.0959 15.9413 41.0292 16.24 41.9626 16.24C42.6532 16.24 43.1759 16.1 43.5306 15.82C43.8852 15.5213 44.0626 15.148 44.0626 14.7C44.0626 14.252 43.8852 13.888 43.5306 13.608C43.1759 13.3093 42.6532 13.16 41.9626 13.16H39.7226V8.96H41.6826C42.2986 8.96 42.7746 8.83867 43.1106 8.596C43.4652 8.33467 43.6426 7.98933 43.6426 7.56C43.6426 7.13067 43.4652 6.79467 43.1106 6.552C42.7746 6.29067 42.2986 6.16 41.6826 6.16C41.0292 6.16 40.3292 6.39333 39.5826 6.86C39.3212 7.028 39.0412 7.26133 38.7426 7.56L35.2426 3.78C35.8026 3.20133 36.4279 2.716 37.1186 2.324C38.7612 1.33467 40.6559 0.839999 42.8026 0.839999C45.1359 0.839999 47.0026 1.4 48.4026 2.52C49.8026 3.64 50.5026 4.94667 50.5026 6.44C50.5026 7.784 49.9146 8.89467 48.7386 9.772C48.2906 10.108 47.7119 10.3787 47.0026 10.584V10.696C47.7119 10.8827 48.3839 11.2 49.0186 11.648C50.3812 12.6747 51.0626 13.972 51.0626 15.54C51.0626 17.1827 50.3159 18.6013 48.8226 19.796C47.3292 20.972 45.3226 21.56 42.8026 21.56C40.4506 21.56 38.3879 21 36.6146 19.88C35.8492 19.432 35.1586 18.872 34.5426 18.2ZM52.8859 21V1.4H62.1259C64.3472 1.4 66.1579 2.08133 67.5579 3.444C68.9765 4.788 69.6859 6.48667 69.6859 8.54C69.6859 10.5933 68.9765 12.3013 67.5579 13.664C66.1579 15.008 64.3472 15.68 62.1259 15.68H59.1859V21H52.8859ZM59.1859 10.36H61.4259C61.9859 10.36 62.4525 10.1827 62.8259 9.828C63.1992 9.47333 63.3859 9.044 63.3859 8.54C63.3859 8.036 63.1992 7.60667 62.8259 7.252C62.4525 6.89733 61.9859 6.72 61.4259 6.72H59.1859V10.36ZM78.06 7.812C77.1454 8.72667 76.688 9.856 76.688 11.2C76.688 12.544 77.1454 13.6733 78.06 14.588C78.9747 15.5027 80.104 15.96 81.448 15.96C82.792 15.96 83.9214 15.5027 84.836 14.588C85.7507 13.6733 86.208 12.544 86.208 11.2C86.208 9.856 85.7507 8.72667 84.836 7.812C83.9214 6.89733 82.792 6.44 81.448 6.44C80.104 6.44 78.9747 6.89733 78.06 7.812ZM73.524 18.564C71.4334 16.548 70.388 14.0933 70.388 11.2C70.388 8.30667 71.4334 5.86133 73.524 3.864C75.6334 1.848 78.2747 0.839999 81.448 0.839999C84.6214 0.839999 87.2534 1.848 89.344 3.864C91.4534 5.86133 92.508 8.30667 92.508 11.2C92.508 14.0933 91.4534 16.548 89.344 18.564C87.2534 20.5613 84.6214 21.56 81.448 21.56C78.2747 21.56 75.6334 20.5613 73.524 18.564ZM100.778 16.1H103.298C103.783 16.1 104.185 15.9507 104.502 15.652C104.819 15.3533 104.978 14.9893 104.978 14.56C104.978 14.1307 104.819 13.7667 104.502 13.468C104.185 13.1693 103.783 13.02 103.298 13.02H100.778V16.1ZM94.4779 21V1.4H109.458V6.58H100.778V8.4H103.998C106.182 8.4 107.937 9.00667 109.262 10.22C110.606 11.4147 111.278 12.908 111.278 14.7C111.278 16.492 110.606 17.9947 109.262 19.208C107.937 20.4027 106.182 21 103.998 21H94.4779ZM113.1 21V1.4H119.4V11.06L126.82 1.4H132.14V21H125.84V11.34L118.42 21H113.1ZM155.095 13.72L158.875 17.78C158.277 18.508 157.549 19.1427 156.691 19.684C154.824 20.9347 152.659 21.56 150.195 21.56C147.021 21.56 144.38 20.5613 142.271 18.564C140.18 16.548 139.135 14.0933 139.135 11.2C139.135 8.30667 140.18 5.86133 142.271 3.864C144.38 1.848 147.021 0.839999 150.195 0.839999C152.621 0.839999 154.759 1.47467 156.607 2.744C157.447 3.304 158.156 3.92933 158.735 4.62L154.955 8.68C154.619 8.26933 154.217 7.896 153.751 7.56C152.705 6.81333 151.567 6.44 150.335 6.44C148.935 6.44 147.768 6.89733 146.835 7.812C145.901 8.72667 145.435 9.856 145.435 11.2C145.435 12.544 145.901 13.6733 146.835 14.588C147.768 15.5027 148.935 15.96 150.335 15.96C151.567 15.96 152.724 15.5867 153.807 14.84C154.348 14.448 154.777 14.0747 155.095 13.72ZM160.135 21V1.4H169.235C171.437 1.4 173.173 1.904 174.443 2.912C175.731 3.92 176.375 5.096 176.375 6.44C176.375 7.93333 175.815 9.06267 174.695 9.828C174.228 10.164 173.668 10.416 173.015 10.584V10.696C173.799 10.864 174.517 11.144 175.171 11.536C176.627 12.4133 177.355 13.748 177.355 15.54C177.355 17.0893 176.692 18.3867 175.367 19.432C174.06 20.4773 172.203 21 169.795 21H160.135ZM166.435 16.24H168.955C169.571 16.24 170.047 16.0907 170.383 15.792C170.737 15.4747 170.915 15.064 170.915 14.56C170.915 14.056 170.737 13.6547 170.383 13.356C170.047 13.0387 169.571 12.88 168.955 12.88H166.435V16.24ZM166.435 8.96H168.115C169.328 8.96 169.935 8.49333 169.935 7.56C169.935 6.62667 169.328 6.16 168.115 6.16H166.435V8.96ZM185.719 7.812C184.804 8.72667 184.347 9.856 184.347 11.2C184.347 12.544 184.804 13.6733 185.719 14.588C186.634 15.5027 187.763 15.96 189.107 15.96C190.451 15.96 191.58 15.5027 192.495 14.588C193.41 13.6733 193.867 12.544 193.867 11.2C193.867 9.856 193.41 8.72667 192.495 7.812C191.58 6.89733 190.451 6.44 189.107 6.44C187.763 6.44 186.634 6.89733 185.719 7.812ZM181.183 18.564C179.092 16.548 178.047 14.0933 178.047 11.2C178.047 8.30667 179.092 5.86133 181.183 3.864C183.292 1.848 185.934 0.839999 189.107 0.839999C192.28 0.839999 194.912 1.848 197.003 3.864C199.112 5.86133 200.167 8.30667 200.167 11.2C200.167 14.0933 199.112 16.548 197.003 18.564C194.912 20.5613 192.28 21.56 189.107 21.56C185.934 21.56 183.292 20.5613 181.183 18.564ZM207.737 8.82H214.457V13.58H207.737C208.017 14.196 208.539 14.7747 209.305 15.316C210.089 15.8387 211.059 16.1 212.217 16.1C213.43 16.1 214.615 15.7267 215.773 14.98C216.295 14.6253 216.743 14.252 217.117 13.86L220.757 17.78C220.159 18.508 219.431 19.1427 218.573 19.684C216.706 20.9347 214.541 21.56 212.077 21.56C208.903 21.56 206.262 20.5613 204.153 18.564C202.062 16.548 201.017 14.0933 201.017 11.2C201.017 8.30667 202.062 5.86133 204.153 3.864C206.262 1.848 208.903 0.839999 212.077 0.839999C214.503 0.839999 216.641 1.47467 218.489 2.744C219.329 3.304 220.038 3.92933 220.617 4.62L216.977 8.54C216.659 8.18533 216.23 7.812 215.689 7.42C214.606 6.67333 213.449 6.3 212.217 6.3C211.059 6.3 210.089 6.57067 209.305 7.112C208.539 7.63467 208.017 8.204 207.737 8.82ZM227.049 21V1.4H245.389V21H239.089V7.14H233.349V21H227.049ZM248.46 21V1.4H264V6.58H254.76V8.96H261.76V13.44H254.76V15.82H264.28V21H248.46ZM266.372 21V1.4H275.612C277.833 1.4 279.644 2.08133 281.044 3.444C282.462 4.788 283.172 6.48667 283.172 8.54C283.172 10.5933 282.462 12.3013 281.044 13.664C279.644 15.008 277.833 15.68 275.612 15.68H272.672V21H266.372ZM272.672 10.36H274.912C275.472 10.36 275.938 10.1827 276.312 9.828C276.685 9.47333 276.872 9.044 276.872 8.54C276.872 8.036 276.685 7.60667 276.312 7.252C275.938 6.89733 275.472 6.72 274.912 6.72H272.672V10.36ZM284.994 21V1.4H291.294V15.26H295.074V1.4H301.374V15.26H305.154V1.4H311.454V21H284.994ZM314.526 21V1.4H330.066V6.58H320.826V8.96H327.826V13.44H320.826V15.82H330.346V21H314.526ZM0.980078 45V29.6H15.3901V45H10.4401V34.11H5.93008V45H0.980078ZM17.8032 45V29.6H25.0632C26.8085 29.6 28.2312 30.1353 29.3312 31.206C30.4459 32.262 31.0032 33.5967 31.0032 35.21C31.0032 36.8233 30.4459 38.1653 29.3312 39.236C28.2312 40.292 26.8085 40.82 25.0632 40.82H22.7532V45H17.8032ZM22.7532 36.64H24.5132C24.9532 36.64 25.3199 36.5007 25.6132 36.222C25.9065 35.9433 26.0532 35.606 26.0532 35.21C26.0532 34.814 25.9065 34.4767 25.6132 34.198C25.3199 33.9193 24.9532 33.78 24.5132 33.78H22.7532V36.64ZM37.5829 34.638C36.8643 35.3567 36.5049 36.244 36.5049 37.3C36.5049 38.356 36.8643 39.2433 37.5829 39.962C38.3016 40.6807 39.1889 41.04 40.2449 41.04C41.3009 41.04 42.1883 40.6807 42.9069 39.962C43.6256 39.2433 43.9849 38.356 43.9849 37.3C43.9849 36.244 43.6256 35.3567 42.9069 34.638C42.1883 33.9193 41.3009 33.56 40.2449 33.56C39.1889 33.56 38.3016 33.9193 37.5829 34.638ZM34.0189 43.086C32.3763 41.502 31.5549 39.5733 31.5549 37.3C31.5549 35.0267 32.3763 33.1053 34.0189 31.536C35.6763 29.952 37.7516 29.16 40.2449 29.16C42.7383 29.16 44.8063 29.952 46.4489 31.536C48.1063 33.1053 48.9349 35.0267 48.9349 37.3C48.9349 39.5733 48.1063 41.502 46.4489 43.086C44.8063 44.6553 42.7383 45.44 40.2449 45.44C37.7516 45.44 35.6763 44.6553 34.0189 43.086ZM48.403 47.97V40.49H49.173C49.5543 40.138 49.899 39.6833 50.207 39.126C50.911 37.8647 51.263 36.3393 51.263 34.55V29.6H63.363V40.49H65.013V47.97H60.063V45H53.353V47.97H48.403ZM54.123 40.6H58.413V33.89H56.103V34.55C56.103 36.3833 55.773 37.9307 55.113 39.192C54.8343 39.7493 54.5043 40.2187 54.123 40.6ZM71.3827 38.62H73.9127L72.7027 34.33H72.5927L71.3827 38.62ZM64.2327 45L69.8427 29.6H75.4527L81.0627 45H75.7827L74.9027 42.03H70.3927L69.5127 45H64.2327ZM93.7372 40.006C94.3386 40.6953 95.0646 41.04 95.9152 41.04C96.7659 41.04 97.4919 40.6953 98.0932 40.006C98.6946 39.3167 98.9952 38.4147 98.9952 37.3C98.9952 36.1853 98.6946 35.2833 98.0932 34.594C97.4919 33.9047 96.7659 33.56 95.9152 33.56C95.0646 33.56 94.3386 33.9047 93.7372 34.594C93.1359 35.2833 92.8352 36.1853 92.8352 37.3C92.8352 38.4147 93.1359 39.3167 93.7372 40.006ZM81.6152 45V29.6H86.5652V34.99H88.1052C88.5012 33.406 89.4032 32.042 90.8112 30.898C92.2339 29.7393 93.9352 29.16 95.9152 29.16C98.2326 29.16 100.147 29.93 101.657 31.47C103.183 32.9953 103.945 34.9387 103.945 37.3C103.945 39.6613 103.183 41.612 101.657 43.152C100.147 44.6773 98.2326 45.44 95.9152 45.44C93.9206 45.44 92.2192 44.8533 90.8112 43.68C89.4179 42.5067 88.5159 41.0767 88.1052 39.39H86.5652V45H81.6152ZM114.065 45V40.27C113.772 40.402 113.501 40.4973 113.251 40.556C112.679 40.732 111.997 40.82 111.205 40.82C109.372 40.82 107.92 40.2627 106.849 39.148C105.793 38.0187 105.265 36.4493 105.265 34.44V29.6H110.215V34.33C110.215 34.99 110.391 35.5033 110.743 35.87C111.095 36.2367 111.579 36.42 112.195 36.42C112.709 36.42 113.156 36.332 113.537 36.156C113.699 36.0973 113.875 36.002 114.065 35.87V29.6H119.015V45H114.065ZM121.427 45V29.6H133.637V33.67H126.377V35.54H131.877V39.06H126.377V40.93H133.857V45H121.427ZM139.455 45V29.6H146.605C148.335 29.6 149.699 29.996 150.697 30.788C151.709 31.58 152.215 32.504 152.215 33.56C152.215 34.7333 151.775 35.6207 150.895 36.222C150.528 36.486 150.088 36.684 149.575 36.816V36.904C150.191 37.036 150.755 37.256 151.269 37.564C152.413 38.2533 152.985 39.302 152.985 40.71C152.985 41.9273 152.464 42.9467 151.423 43.768C150.396 44.5893 148.937 45 147.045 45H139.455ZM144.405 41.26H146.385C146.869 41.26 147.243 41.1427 147.507 40.908C147.785 40.6587 147.925 40.336 147.925 39.94C147.925 39.544 147.785 39.2287 147.507 38.994C147.243 38.7447 146.869 38.62 146.385 38.62H144.405V41.26ZM144.405 35.54H145.725C146.678 35.54 147.155 35.1733 147.155 34.44C147.155 33.7067 146.678 33.34 145.725 33.34H144.405V35.54ZM154.409 45V29.6H159.359V45H154.409ZM160.129 47.97V40.49H160.899C161.28 40.138 161.625 39.6833 161.933 39.126C162.637 37.8647 162.989 36.3393 162.989 34.55V29.6H175.089V40.49H176.739V47.97H171.789V45H165.079V47.97H160.129ZM165.849 40.6H170.139V33.89H167.829V34.55C167.829 36.3833 167.499 37.9307 166.839 39.192C166.56 39.7493 166.23 40.2187 165.849 40.6ZM177.828 45V29.6H190.038V33.67H182.778V35.54H188.278V39.06H182.778V40.93H190.258V45H177.828ZM196.62 34.638C195.901 35.3567 195.542 36.244 195.542 37.3C195.542 38.356 195.901 39.2433 196.62 39.962C197.338 40.6807 198.226 41.04 199.282 41.04C200.338 41.04 201.225 40.6807 201.944 39.962C202.662 39.2433 203.022 38.356 203.022 37.3C203.022 36.244 202.662 35.3567 201.944 34.638C201.225 33.9193 200.338 33.56 199.282 33.56C198.226 33.56 197.338 33.9193 196.62 34.638ZM193.056 43.086C191.413 41.502 190.592 39.5733 190.592 37.3C190.592 35.0267 191.413 33.1053 193.056 31.536C194.713 29.952 196.788 29.16 199.282 29.16C201.775 29.16 203.843 29.952 205.486 31.536C207.143 33.1053 207.972 35.0267 207.972 37.3C207.972 39.5733 207.143 41.502 205.486 43.086C203.843 44.6553 201.775 45.44 199.282 45.44C196.788 45.44 194.713 44.6553 193.056 43.086ZM98.7776 73.4L103.278 68.54C103.734 69.02 104.214 69.416 104.718 69.728C105.918 70.496 107.118 70.88 108.318 70.88C109.206 70.88 109.878 70.7 110.334 70.34C110.79 69.956 111.018 69.476 111.018 68.9C111.018 68.324 110.79 67.856 110.334 67.496C109.878 67.112 109.206 66.92 108.318 66.92H105.438V61.52H107.958C108.75 61.52 109.362 61.364 109.794 61.052C110.25 60.716 110.478 60.272 110.478 59.72C110.478 59.168 110.25 58.736 109.794 58.424C109.362 58.088 108.75 57.92 107.958 57.92C107.118 57.92 106.218 58.22 105.258 58.82C104.922 59.036 104.562 59.336 104.178 59.72L99.6776 54.86C100.398 54.116 101.202 53.492 102.09 52.988C104.202 51.716 106.638 51.08 109.398 51.08C112.398 51.08 114.798 51.8 116.598 53.24C118.398 54.68 119.298 56.36 119.298 58.28C119.298 60.008 118.542 61.436 117.03 62.564C116.454 62.996 115.71 63.344 114.798 63.608V63.752C115.71 63.992 116.574 64.4 117.39 64.976C119.142 66.296 120.018 67.964 120.018 69.98C120.018 72.092 119.058 73.916 117.138 75.452C115.218 76.964 112.638 77.72 109.398 77.72C106.374 77.72 103.722 77 101.442 75.56C100.458 74.984 99.5696 74.264 98.7776 73.4ZM130.299 66.56H134.439L132.459 59.54H132.279L130.299 66.56ZM118.599 77L127.779 51.8H136.959L146.139 77H137.499L136.059 72.14H128.679L127.239 77H118.599ZM151.883 77L160.523 59.18H150.803V51.8H169.523V58.28L160.523 77H151.883ZM175.285 81.86V69.62H176.545C177.169 69.044 177.733 68.3 178.237 67.388C179.389 65.324 179.965 62.828 179.965 59.9V51.8H199.765V69.62H202.465V81.86H194.365V77H183.385V81.86H175.285ZM184.645 69.8H191.665V58.82H187.885V59.9C187.885 62.9 187.345 65.432 186.265 67.496C185.809 68.408 185.269 69.176 184.645 69.8ZM204.248 77V51.8H212.348V60.62H219.908V51.8H228.008V77H219.908V67.82H212.348V77H204.248ZM231.952 77V51.8H240.052V77H231.952ZM244.012 77V51.8H255.712C258.544 51.8 260.776 52.448 262.408 53.744C264.064 55.04 264.892 56.552 264.892 58.28C264.892 60.2 264.172 61.652 262.732 62.636C262.132 63.068 261.412 63.392 260.572 63.608V63.752C261.58 63.968 262.504 64.328 263.344 64.832C265.216 65.96 266.152 67.676 266.152 69.98C266.152 71.972 265.3 73.64 263.596 74.984C261.916 76.328 259.528 77 256.432 77H244.012ZM252.112 70.88H255.352C256.144 70.88 256.756 70.688 257.188 70.304C257.644 69.896 257.872 69.368 257.872 68.72C257.872 68.072 257.644 67.556 257.188 67.172C256.756 66.764 256.144 66.56 255.352 66.56H252.112V70.88ZM252.112 61.52H254.272C255.832 61.52 256.612 60.92 256.612 59.72C256.612 58.52 255.832 57.92 254.272 57.92H252.112V61.52Z" fill="#FDCC03"/>
<path d="M213.473 45V29.6H218.423V34.99H223.043V29.6H227.993V45H223.043V39.39H218.423V45H213.473ZM235.684 38.62H238.214L237.004 34.33H236.894L235.684 38.62ZM228.534 45L234.144 29.6H239.754L245.364 45H240.084L239.204 42.03H234.694L233.814 45H228.534ZM251.399 45V34.11H247.329V29.6H260.419V34.11H256.349V45H251.399ZM261.623 45V29.6H273.833V33.67H266.573V35.54H272.073V39.06H266.573V40.93H274.053V45H261.623ZM274.046 45V40.49C274.12 40.5487 274.2 40.5853 274.288 40.6C274.479 40.6733 274.692 40.71 274.926 40.71C275.278 40.71 275.586 40.622 275.85 40.446C276.129 40.27 276.386 39.9693 276.62 39.544C276.855 39.1187 277.031 38.488 277.148 37.652C277.28 36.816 277.346 35.7893 277.346 34.572V29.6H289.776V45H284.826V34.11H282.186C282.186 36.2807 282.047 38.1213 281.768 39.632C281.49 41.1427 281.079 42.316 280.536 43.152C279.994 43.9733 279.385 44.56 278.71 44.912C278.036 45.264 277.251 45.44 276.356 45.44C275.784 45.44 275.22 45.3667 274.662 45.22C274.398 45.1467 274.193 45.0733 274.046 45ZM292.197 45V29.6H304.407V33.67H297.147V35.54H302.647V39.06H297.147V40.93H304.627V45H292.197ZM311.891 39.61V34.55C311.26 34.6087 310.732 34.8727 310.307 35.342C309.896 35.7967 309.691 36.376 309.691 37.08C309.691 37.784 309.896 38.3707 310.307 38.84C310.732 39.2947 311.26 39.5513 311.891 39.61ZM311.781 45.44V43.57C309.727 43.4527 308.041 42.778 306.721 41.546C305.401 40.2993 304.741 38.8107 304.741 37.08C304.741 35.3493 305.401 33.868 306.721 32.636C308.041 31.3893 309.727 30.7073 311.781 30.59V28.94H316.731V30.59C318.784 30.7073 320.471 31.3893 321.791 32.636C323.111 33.868 323.771 35.3493 323.771 37.08C323.771 38.8107 323.111 40.2993 321.791 41.546C320.471 42.778 318.784 43.4527 316.731 43.57V45.44H311.781ZM316.621 34.55V39.61C317.251 39.5513 317.772 39.2947 318.183 38.84C318.608 38.3707 318.821 37.784 318.821 37.08C318.821 36.376 318.608 35.7967 318.183 35.342C317.772 34.8727 317.251 34.6087 316.621 34.55ZM330.24 34.638C329.521 35.3567 329.162 36.244 329.162 37.3C329.162 38.356 329.521 39.2433 330.24 39.962C330.958 40.6807 331.846 41.04 332.902 41.04C333.958 41.04 334.845 40.6807 335.564 39.962C336.282 39.2433 336.642 38.356 336.642 37.3C336.642 36.244 336.282 35.3567 335.564 34.638C334.845 33.9193 333.958 33.56 332.902 33.56C331.846 33.56 330.958 33.9193 330.24 34.638ZM326.676 43.086C325.033 41.502 324.212 39.5733 324.212 37.3C324.212 35.0267 325.033 33.1053 326.676 31.536C328.333 29.952 330.408 29.16 332.902 29.16C335.395 29.16 337.463 29.952 339.106 31.536C340.763 33.1053 341.592 35.0267 341.592 37.3C341.592 39.5733 340.763 41.502 339.106 43.086C337.463 44.6553 335.395 45.44 332.902 45.44C330.408 45.44 328.333 44.6553 326.676 43.086ZM343.139 45V29.6H348.089V34.99H352.709V29.6H357.659V45H352.709V39.39H348.089V45H343.139ZM360.07 45V29.6H365.02V45H360.07Z" fill="white"/>
</svg>
